<?xml version="1.0" standalone="no"?>
<!DOCTYPE svg PUBLIC "-//W3C//DTD SVG 20010904//EN"
 "http://www.w3.org/TR/2001/REC-SVG-20010904/DTD/svg10.dtd">
<svg version="1.0" xmlns="http://www.w3.org/2000/svg"
 width="1280.000000pt" height="1271.000000pt" viewBox="0 0 1280.000000 1271.000000"
 preserveAspectRatio="xMidYMid meet">
<metadata>
Created by potrace 1.15, written by Peter Selinger 2001-2017
</metadata>
<g transform="translate(0.000000,1271.000000) scale(0.100000,-0.100000)"
fill="#FFD700" stroke="none">
<path d="M6390 12688 c0 -7 -45 -148 -99 -313 l-98 -300 -331 0 c-257 0 -329
-3 -319 -12 7 -7 125 -93 262 -193 138 -99 251 -185 253 -190 2 -5 -38 -136
-88 -292 -117 -360 -111 -340 -97 -331 7 3 126 89 264 190 139 101 257 183
263 183 6 0 124 -82 263 -183 138 -101 257 -187 264 -190 14 -9 20 -29 -97
331 -50 156 -90 287 -88 292 2 5 116 91 253 191 138 99 255 186 262 192 9 9
-69 12 -319 12 l-331 0 -98 300 c-54 165 -99 306 -99 313 0 6 -4 12 -10 12 -5
0 -10 -6 -10 -12z"/>
<path d="M3597 11843 c-21 -65 -66 -206 -101 -313 l-64 -195 -330 -5 -330 -5
263 -190 c145 -104 264 -193 265 -198 0 -4 -45 -145 -100 -314 -55 -169 -98
-308 -97 -309 1 -2 122 84 267 190 146 106 270 190 275 186 125 -91 526 -380
528 -380 2 0 -4 24 -14 53 -23 68 -133 406 -163 502 l-24 75 265 193 265 192
-328 5 -329 5 -17 50 c-9 28 -54 165 -99 305 -45 140 -85 258 -88 263 -4 4
-24 -46 -44 -110z"/>
<path d="M9158 11955 c-3 -6 -42 -125 -87 -265 -45 -140 -90 -277 -99 -305
l-17 -50 -333 -3 -333 -2 223 -162 c123 -89 244 -176 269 -195 l47 -33 -63
-193 c-110 -334 -143 -437 -139 -437 2 0 123 87 269 194 l267 194 266 -194
c146 -106 267 -192 269 -191 1 2 -42 141 -97 310 -55 169 -100 310 -100 314 1
5 120 94 265 198 l263 190 -330 5 -330 5 -68 210 c-38 116 -84 257 -102 315
-19 57 -37 100 -40 95z"/>
<path d="M1525 9675 c-48 -149 -94 -291 -102 -317 l-14 -48 -330 -2 -330 -3
265 -193 265 -192 -13 -43 c-7 -23 -52 -163 -101 -310 -48 -148 -85 -270 -84
-272 2 -2 121 82 264 186 143 104 265 189 270 189 6 0 127 -86 270 -189 143
-104 261 -188 263 -186 3 2 -175 561 -195 612 -2 6 116 98 262 205 l267 193
-330 3 -330 2 -97 298 c-52 163 -99 306 -104 317 -6 14 -31 -52 -96 -250z"/>
<path d="M11080 9628 l-104 -318 -329 -2 -329 -3 262 -189 c143 -104 262 -192
264 -195 2 -3 -15 -60 -36 -126 -139 -425 -164 -505 -161 -505 2 0 119 84 260
186 141 102 262 188 269 191 7 3 131 -81 276 -185 144 -105 264 -189 266 -187
3 2 -33 113 -173 544 -14 40 -22 77 -20 81 3 4 122 93 265 196 l261 189 -330
3 -330 2 -104 318 -104 317 -103 -317z"/>
<path d="M793 6935 c-45 -137 -91 -280 -103 -317 l-22 -68 -329 -2 -330 -3
266 -194 c180 -131 264 -198 261 -208 -22 -55 -197 -605 -194 -608 1 -2 120
82 263 185 143 104 265 189 270 190 6 0 127 -85 270 -189 143 -105 261 -188
263 -186 3 2 -173 553 -195 611 -2 7 116 99 262 205 l267 194 -330 3 -331 2
-103 318 -104 317 -81 -250z"/>
<path d="M11820 6868 l-104 -318 -329 -2 -329 -3 265 -193 265 -193 -18 -57
c-141 -432 -180 -556 -178 -562 2 -5 120 77 263 181 143 104 265 189 270 189
6 -1 127 -86 270 -190 143 -104 261 -188 263 -186 1 2 -4 23 -12 47 -115 350
-186 569 -186 572 0 3 120 92 266 198 l266 194 -331 3 -330 2 -104 318 -104
317 -103 -317z"/>
<path d="M1533 4174 c-45 -137 -91 -279 -103 -316 l-22 -68 -330 -2 -330 -3
267 -194 c160 -116 264 -199 261 -206 -23 -60 -197 -608 -194 -611 3 -2 122
82 266 186 144 105 264 190 267 190 3 0 119 -82 258 -183 295 -215 282 -206
275 -181 -7 23 -189 584 -195 600 -2 7 116 99 263 205 l268 194 -332 3 -331 2
-96 298 c-53 163 -99 306 -104 316 -5 14 -30 -51 -88 -230z"/>
<path d="M11088 4130 c-53 -162 -99 -305 -103 -317 l-6 -23 -331 -2 -332 -3
266 -193 266 -193 -13 -42 c-7 -23 -41 -127 -75 -232 -93 -285 -112 -347 -108
-351 2 -2 116 78 253 178 138 99 257 185 266 191 12 7 73 -33 278 -182 145
-106 265 -190 267 -188 2 2 -7 37 -21 78 -29 89 -160 495 -169 526 -6 19 23
43 260 215 l266 193 -331 3 -330 2 -104 318 -104 317 -95 -295z"/>
<path d="M3534 2086 l-100 -311 -334 -5 -334 -5 267 -194 c147 -106 267 -196
267 -200 0 -3 -45 -143 -99 -311 -55 -168 -98 -307 -96 -308 2 -2 118 79 257
180 139 101 259 187 265 191 8 5 108 -61 275 -182 144 -105 263 -189 266 -187
3 3 -170 547 -194 609 -2 7 107 92 266 207 l270 195 -333 3 -333 2 -57 178
c-92 283 -144 443 -148 446 -2 2 -49 -136 -105 -308z"/>
<path d="M9156 2390 c-3 -8 -49 -151 -103 -317 l-97 -303 -334 -2 -333 -3 269
-194 269 -193 -49 -152 c-27 -83 -73 -225 -103 -315 -30 -91 -54 -166 -52
-167 1 -1 121 86 267 192 146 106 270 192 276 190 6 -3 126 -88 267 -190 141
-102 258 -186 261 -186 3 0 4 6 1 13 -92 277 -195 609 -191 615 3 5 123 94
268 198 l262 189 -334 5 -334 5 -102 315 c-56 173 -105 308 -108 300z"/>
<path d="M6295 1340 l-100 -310 -333 -2 -334 -3 262 -189 c144 -104 264 -194
266 -201 3 -7 -24 -102 -60 -211 -35 -109 -80 -246 -99 -304 -19 -58 -33 -107
-31 -109 2 -2 121 83 266 188 145 105 265 191 268 191 3 0 123 -86 268 -191
145 -105 264 -190 266 -188 2 2 -12 51 -31 109 -19 58 -64 195 -99 304 -36
109 -63 204 -60 211 2 7 122 97 265 201 l261 189 -332 3 -333 2 -100 310 c-54
171 -102 310 -105 310 -3 0 -51 -139 -105 -310z"/>
</g>
</svg>
