<svg xmlns="http://www.w3.org/2000/svg" viewBox="0 0 155.97 51.66"><defs><style>.cls-1,.cls-4{fill:#333;}.cls-1{fill-opacity:0;}.cls-2{fill:#59c3e1;}.cls-3{fill:#66bf97;}</style></defs><g id="Layer_2" data-name="Layer 2"><g id="Layer_1-2" data-name="Layer 1"><rect class="cls-1" width="52.48" height="51.66"/><path class="cls-2" d="M49.75,35.69a24.6,24.6,0,0,0,2-9.72,26,26,0,0,0-2-10,25.09,25.09,0,0,0-5.44-8.27A26.13,26.13,0,0,0,25.84,0V6.65A17.74,17.74,0,0,1,34,8.4,18.13,18.13,0,0,1,39.89,13a19.89,19.89,0,0,1,3.48,6.29A20.27,20.27,0,0,1,44.55,26a19.56,19.56,0,0,1-.8,5.27L49,37.6A14.61,14.61,0,0,1,49.75,35.69Z"/><path class="cls-3" d="M45.18,42.87l-4.54-5.38L34.34,30H25.48L35.69,42.15c-.51.34-1,.63-1.56.93a17.42,17.42,0,0,1-8.39,1.84,17.57,17.57,0,0,1-8.4-1.84,18.43,18.43,0,0,1-5.58-4.66,19.26,19.26,0,0,1-3.4-6.3,21,21,0,0,1-1.12-6.43H0a25.3,25.3,0,0,0,2,9.79,25.89,25.89,0,0,0,13.58,14,25.23,25.23,0,0,0,10.31,2.1,24.92,24.92,0,0,0,10.25-2.1A27.53,27.53,0,0,0,40,47.36l3.61,4.3h8.84Z"/><path class="cls-4" d="M55.06,15.19h4.39V31.12a6.68,6.68,0,0,0,1.31,4.4,4.88,4.88,0,0,0,3.94,1.55h0a7.56,7.56,0,0,0,3.63-.92,11.22,11.22,0,0,0,3.13-2.54h0V15.19h4.4v25H73.24a1.12,1.12,0,0,1-1.18-.92h0l-.35-2.68a13.73,13.73,0,0,1-3.65,2.89,9.5,9.5,0,0,1-4.64,1.11h0a9,9,0,0,1-3.61-.68A7.29,7.29,0,0,1,57.18,38a8.31,8.31,0,0,1-1.59-3,13,13,0,0,1-.53-3.87h0Z"/><path class="cls-4" d="M79.66,15.19h4.4v25h-4.4ZM85,7.34h0a3,3,0,0,1-.25,1.2,3.58,3.58,0,0,1-.7,1,3.11,3.11,0,0,1-1,.68,3.07,3.07,0,0,1-1.2.25h0a3,3,0,0,1-1.2-.25,3.18,3.18,0,0,1-1-.68,3.11,3.11,0,0,1-.67-1,2.84,2.84,0,0,1-.25-1.2h0a3.22,3.22,0,0,1,.92-2.23,3.36,3.36,0,0,1,1-.68,2.84,2.84,0,0,1,1.2-.25h0a2.9,2.9,0,0,1,1.2.25,3.28,3.28,0,0,1,1,.68,3.44,3.44,0,0,1,.7,1A3.17,3.17,0,0,1,85,7.34Z"/><path class="cls-4" d="M107.41,15.19v1.87a2.52,2.52,0,0,1-.17.9,3,3,0,0,1-.44.78h0l-13.52,18h13.64v3.43H88.1V38.35a2.15,2.15,0,0,1,.16-.75,3.37,3.37,0,0,1,.45-.83h0l13.6-18.13H88.86V15.19Z"/><path class="cls-4" d="M129.43,15.19v1.87a2.32,2.32,0,0,1-.17.9,3,3,0,0,1-.44.78h0l-13.52,18h13.64v3.43H110.12V38.35a2.15,2.15,0,0,1,.16-.75,3.41,3.41,0,0,1,.46-.83h0l13.59-18.13H110.88V15.19Z"/><path class="cls-4" d="M144.08,14.79h0a12.8,12.8,0,0,1,4.95.92,10.22,10.22,0,0,1,3.75,2.59,11.42,11.42,0,0,1,2.37,4.06,16.08,16.08,0,0,1,.82,5.31h0a16.06,16.06,0,0,1-.82,5.32,11.29,11.29,0,0,1-2.37,4A10.32,10.32,0,0,1,149,39.62a13,13,0,0,1-4.95.91h0a13,13,0,0,1-5-.91A10.44,10.44,0,0,1,135.37,37,11.48,11.48,0,0,1,133,33a15.8,15.8,0,0,1-.84-5.32h0a15.82,15.82,0,0,1,.84-5.31,11.61,11.61,0,0,1,2.39-4.06,10.34,10.34,0,0,1,3.76-2.59A12.84,12.84,0,0,1,144.08,14.79Zm0,22.3h0a6.41,6.41,0,0,0,5.53-2.48,11.52,11.52,0,0,0,1.82-6.92h0a11.62,11.62,0,0,0-1.82-7,6.41,6.41,0,0,0-5.53-2.49h0a7.75,7.75,0,0,0-3.25.63,6.15,6.15,0,0,0-2.31,1.86,8.16,8.16,0,0,0-1.38,3,16.12,16.12,0,0,0-.46,4h0a15.92,15.92,0,0,0,.46,4,7.91,7.91,0,0,0,1.38,2.95,6.19,6.19,0,0,0,2.31,1.84A7.6,7.6,0,0,0,144.08,37.09Z"/></g></g></svg>