<svg xmlns="http://www.w3.org/2000/svg" viewBox="0 0 288 283.51"><defs><style>.cls-1{fill:#59c3e1;}.cls-2{fill:#66bf97;}</style></defs><g id="Layer_2" data-name="Layer 2"><g id="Layer_1-2" data-name="Layer 1"><path class="cls-1" d="M273,195.84a135.72,135.72,0,0,0,10.72-53.34A142.43,142.43,0,0,0,273,87.44a138.08,138.08,0,0,0-29.83-45.39A141.37,141.37,0,0,0,198,11.52,140,140,0,0,0,141.81,0V36.52a97,97,0,0,1,44.58,9.56,99.41,99.41,0,0,1,32.49,25.35A108.17,108.17,0,0,1,238,106a111,111,0,0,1,6.45,36.86,106.06,106.06,0,0,1-4.37,28.91l28.68,34.56A80.59,80.59,0,0,1,273,195.84Z"/><path class="cls-2" d="M247.91,235.24,223,205.75l-34.56-41.13H139.85l56,66.7c-2.76,1.85-5.53,3.46-8.52,5.07a96.1,96.1,0,0,1-46.08,10.14,96.42,96.42,0,0,1-46.08-10.14,100.35,100.35,0,0,1-30.65-25.57,106.34,106.34,0,0,1-18.66-34.56A115.27,115.27,0,0,1,39.74,141H0a138.34,138.34,0,0,0,10.71,53.68,142,142,0,0,0,74.54,76.72,138.08,138.08,0,0,0,56.56,11.52A136.28,136.28,0,0,0,198,271.41a150.76,150.76,0,0,0,21.66-11.52l19.81,23.62H288Z"/></g></g></svg>